<?xml version="1.0" encoding="UTF-8"?>
<svg id="Layer_2" data-name="Layer 2" xmlns="http://www.w3.org/2000/svg" viewBox="0 0 66.58 39.78">
  <defs>
    <style>
      .cls-1 {
        fill: #e6b84c;
      }
    </style>
  </defs>
  <g id="Layer_1-2" data-name="Layer 1">
    <path class="cls-1" d="M66.58,19.39l-.45-.1c-2.37-1.94-4.87-4.42-7.65-5.74-4.31-2.04-5.19.71-7.55,3.37-2.6,2.92-5.32,4.86-9.14,5.86-2.99.78-5.98.72-9.03.38l-1.1,1.83c.2,1.74,1.63,3.03,2.77,4.24,2.54,2.72,5.33,5.74,8.58,7.52,1,0,2.02.06,3.02.02.4-.01.95-.19,1.33-.17.19,0,1.27.31.98.59l-.25.08c.76-.02,1.56.02,2.28.3.22.09.74.28.55.55l-.87-.07c-.05.21-.1.22-.3.25-1.35.17-3.47-.21-4.89-.26-.52-.02-1.04.02-1.56,0-.02.12.15.11.24.14.53.18,2.46.51,2.59,1.05-.05.37-.57.08-.77.1-.12,0-.23.15-.42.17-1.19.14-3.24-.76-4.14-1.54-.44-.38-1-.97-1.31-1.45l-.17.05c-.04.26-.59,1.12-.88.8-.08-.09.23-1.21.29-1.41,0-.19-.36-.59-.5-.76-1.73-2.15-4.29-4.88-6.32-6.74-.54-.5-1.34-1-1.82-1.49-1.28-1.3.68-2.82.97-4.18l-2.02-.38c-.32.1-1.78,1.29-1.9,1.58-.1.22-.02.53-.06.79-.06.36-.35.68-.43,1.02-.17.69.11,2.54.21,3.34.25,2.05.63,4.5,1.18,6.48.15.55.51,1.86.97,2.17.54.35,2.43.3,3.11.27.97-.05,2.63-.5,3.47-.11.13.06.22.22.34.26.31.09,2.43,0,2.22.74-.07.25-.5.06-.63.09-.17.03-.35.17-.6.2-1.19.15-2.39.1-3.58-.07l.34.38c-.03.27-2.16.24-2.49.22-1.31-.08-3.26-.46-3.92-1.71-.3.34-1.54,1.37-1.13.26.2-.55.62-.96.79-1.48-.57-3.06-1.06-6.13-1.62-9.19-.15-.83-.64-2.26-.57-3.01.13-1.26,1.9-1.89,2.61-2.81-.96-.44-1.96-.78-2.92-1.22-6.48-2.97-11.52-8.22-17.69-11.71C4.61,7.69,2.39,6.78.15,5.83c-.48-.37.3-.47.58-.5.85-.08,1.8-.06,2.66-.09L.94,3.92l-.08-.3c.1-.01.2-.06.3-.08,1.69-.22,4.06.31,5.81.25,2.78-.01,5.58.24,8.35,0,4.85-.43,9.44-2.16,14.2-3.04,3.83-.71,9.74-1.43,13.26.44.68.36,2.19,1.66,2.75,1.74.96.14,3.08-.83,4.3-.93,3.42-.28,6.6,1.8,7.39,5.23.36,1.56.28,2.14,1.38,3.46,2.22,2.66,5.43,4.06,7.42,7.34.25.41.59.87.56,1.36ZM51.71,5.94c-1.55.26-1.55,2.79-.02,3.04,2.52.41,2.47-3.46.02-3.04Z"/>
  </g>
</svg>