<svg viewBox="0 0 120.98 71.54" xmlns="http://www.w3.org/2000/svg"><path d="m120.98 34.87-.82-.17c-4.3-3.48-8.85-7.96-13.9-10.32-7.83-3.67-9.43 1.28-13.72 6.06-4.72 5.26-9.68 8.73-16.6 10.53-5.43 1.41-10.87 1.3-16.41.69l-1.99 3.3c.37 3.14 2.96 5.44 5.02 7.63 4.61 4.89 9.69 10.31 15.6 13.53 1.82.02 3.67.1 5.49.04.72-.02 1.73-.34 2.42-.3.35.02 2.3.56 1.79 1.06l-.46.15c1.39-.04 2.83.03 4.14.54.41.16 1.35.5 1 1l-1.59-.13c-.09.39-.19.4-.55.45-2.44.31-6.3-.39-8.89-.48-.94-.03-1.9.04-2.84 0-.04.22.27.2.43.26.95.33 4.47.91 4.71 1.88-.08.66-1.04.15-1.4.17-.22.01-.42.27-.75.3-2.16.24-5.88-1.37-7.52-2.77-.81-.69-1.81-1.74-2.38-2.61l-.31.09c-.07.47-1.07 2.01-1.61 1.44-.15-.16.42-2.17.53-2.53 0-.34-.66-1.06-.91-1.37-3.13-3.87-7.8-8.77-11.49-12.12-.99-.9-2.43-1.8-3.3-2.67-2.33-2.33 1.24-5.07 1.77-7.52l-3.67-.69c-.58.18-3.23 2.33-3.46 2.84-.18.39-.03.95-.12 1.42-.11.65-.63 1.22-.78 1.83-.3 1.24.2 4.57.37 6.01.45 3.69 1.15 8.09 2.14 11.66.27.99.92 3.35 1.77 3.9.97.63 4.42.55 5.66.49 1.77-.08 4.78-.9 6.31-.19.24.11.41.4.61.46.56.16 4.42.02 4.03 1.33-.13.45-.92.12-1.15.16-.3.05-.64.31-1.09.37-2.17.27-4.35.18-6.5-.13l.61.69c-.05.48-3.93.43-4.52.39-2.37-.15-5.93-.82-7.12-3.07-.54.61-2.79 2.46-2.06.46.36-.99 1.12-1.72 1.44-2.66-1.03-5.5-1.93-11.03-2.95-16.53-.28-1.5-1.17-4.06-1.03-5.41.23-2.27 3.45-3.39 4.75-5.06-1.74-.8-3.57-1.4-5.31-2.2-11.78-5.35-20.93-14.78-32.14-21.05-3.86-2.16-7.9-3.79-11.96-5.51-.87-.66.54-.85 1.06-.9 1.55-.14 3.26-.1 4.83-.16l-4.46-2.39-.14-.54c.19-.02.36-.12.55-.14 3.07-.39 7.38.55 10.56.45 5.04-.02 10.14.43 15.18 0 8.8-.77 17.16-3.88 25.8-5.47 6.96-1.28 17.7-2.57 24.1.79 1.24.65 3.98 2.99 4.99 3.13 1.75.25 5.59-1.49 7.81-1.67 6.22-.5 11.99 3.24 13.43 9.41.66 2.81.5 3.85 2.51 6.23 4.04 4.78 9.87 7.3 13.48 13.19.45.73 1.08 1.56 1.01 2.44zm-27.02-24.18c-2.82.47-2.82 5.02-.03 5.47 4.58.73 4.49-6.22.03-5.47z" fill="#47a7eb"/></svg>